<svg width="11" height="14" viewBox="0 0 11 14" fill="none" xmlns="http://www.w3.org/2000/svg">
<path d="M0.645793 13.4628L0.644262 13.462C0.599896 13.4373 0.563587 13.4017 0.538557 13.3595C0.513606 13.3173 0.500598 13.2698 0.500455 13.2217V1.81222H0.500585L0.500326 1.80084C0.492737 1.46755 0.618051 1.14378 0.850661 0.899897C1.08163 0.657732 1.40005 0.513715 1.7382 0.5H9.2618C9.59995 0.513715 9.91837 0.657732 10.1493 0.899897C10.3819 1.14378 10.5073 1.46755 10.4997 1.80084L10.4995 1.80084V1.81222V13.2203C10.4991 13.2674 10.4862 13.3139 10.462 13.3553C10.4375 13.397 10.402 13.4322 10.3586 13.457L10.3586 13.457C10.3149 13.482 10.265 13.4953 10.2139 13.4953C10.1628 13.4953 10.1129 13.482 10.0692 13.457L10.0692 13.457L10.0655 13.4549L5.6109 10.9583L5.3591 10.8172L5.11098 10.9646L0.923466 13.4535L0.923438 13.4535L0.917151 13.4573C0.876101 13.4826 0.828943 13.4973 0.780086 13.4999C0.732709 13.4985 0.686585 13.4857 0.645793 13.4628Z" fill="white" stroke="#898989"/>
</svg>