<svg width="33" height="28" viewBox="0 0 33 28" fill="none" xmlns="http://www.w3.org/2000/svg">
<path d="M10.7251 19.25C10.6018 19.25 10.4786 19.2691 10.361 19.3096C9.69278 19.5398 8.98998 19.6875 8.25006 19.6875C7.51014 19.6875 6.80735 19.5398 6.13858 19.3096C6.02102 19.2691 5.8983 19.25 5.77507 19.25C2.57511 19.25 -0.0169323 22.0106 8.32979e-05 25.4089C0.00730203 26.845 1.12053 28 2.47508 28H14.025C15.3796 28 16.4928 26.845 16.5 25.4089C16.5171 22.0106 13.925 19.25 10.7251 19.25ZM8.25006 17.5C10.9839 17.5 13.2001 15.1495 13.2001 12.25C13.2001 9.35047 10.9839 7 8.25006 7C5.51623 7 3.30008 9.35047 3.30008 12.25C3.30008 15.1495 5.51623 17.5 8.25006 17.5ZM30.525 0H10.7251C9.3602 0 8.25006 1.2168 8.25006 2.71195V5.25C9.45765 5.25 10.5755 5.62078 11.5501 6.22344V3.5H29.7V19.25H26.4V15.75H19.8V19.25H15.8689C16.8538 20.1627 17.5767 21.368 17.9154 22.75H30.525C31.8899 22.75 33 21.5332 33 20.038V2.71195C33 1.2168 31.8899 0 30.525 0Z" fill="#FEBAAB"/>
</svg>
