<svg width="21" height="22" viewBox="0 0 21 22" fill="none" xmlns="http://www.w3.org/2000/svg">
<path d="M5.25014 0C4.83591 0 4.50012 0.351776 4.50012 0.785729V2.35714H6.00011V0.785729C6.00011 0.351776 5.66432 0 5.25014 0Z" fill="black"/>
<path d="M15.7505 0C15.3363 0 15.0005 0.351776 15.0005 0.785729V2.35714H16.5005V0.785729C16.5005 0.351776 16.1647 0 15.7505 0Z" fill="black"/>
<path d="M18.75 2.35742H16.5V5.50029C16.5 5.93425 16.1642 6.28602 15.75 6.28602C15.3358 6.28602 15 5.93425 15 5.50029V2.35742H5.99998V5.50029C5.99998 5.93425 5.6642 6.28602 5.24997 6.28602C4.83574 6.28602 4.49995 5.93425 4.49995 5.50029V2.35742H2.25C1.00736 2.35742 0 3.41275 0 4.71456V19.6431C0 20.945 1.00736 22.0003 2.25 22.0003H18.75C19.9926 22.0003 21 20.945 21 19.6431V4.71456C21 3.41275 19.9926 2.35742 18.75 2.35742ZM19.5 19.6431C19.5 20.0771 19.1642 20.4289 18.75 20.4289H2.25C1.83577 20.4289 1.49998 20.0771 1.49998 19.6431V9.42885H19.5V19.6431Z" fill="black"/>
<path d="M15.5302 11.2304C15.2373 10.9233 14.7624 10.9232 14.4693 11.23L8.99957 16.9602L6.5298 14.3728C6.23673 14.066 5.76176 14.0662 5.46891 14.3732C5.17606 14.6803 5.17624 15.1778 5.46931 15.4846L8.46932 18.6275C8.76222 18.9343 9.23696 18.9343 9.52981 18.6275L15.5298 12.3418C15.8229 12.035 15.823 11.5374 15.5302 11.2304Z" fill="black"/>
</svg>
