<svg width="171" height="166" viewBox="0 0 171 166" fill="none" xmlns="http://www.w3.org/2000/svg">
<path d="M44.6484 115.465C51.4844 115.465 57.5781 114.156 62.9297 111.539C68.2812 108.883 72.5781 105.23 75.8203 100.582C79.1016 95.9336 81.0156 90.6211 81.5625 84.6445L81.6211 84H64.3945L64.2773 84.5859C63.5352 87.9453 62.2656 90.8164 60.4688 93.1992C58.6719 95.543 56.4258 97.3398 53.7305 98.5898C51.0742 99.8398 48.0469 100.465 44.6484 100.465C40.1562 100.465 36.2305 99.3125 32.8711 97.0078C29.5508 94.6641 26.9727 91.3438 25.1367 87.0469C23.3398 82.7109 22.4414 77.5742 22.4414 71.6367V71.5781C22.4414 65.6797 23.3398 60.6016 25.1367 56.3438C26.9727 52.0469 29.5508 48.7461 32.8711 46.4414C36.1914 44.1367 40.1172 42.9844 44.6484 42.9844C48.1641 42.9844 51.25 43.6289 53.9062 44.918C56.6016 46.168 58.8086 47.9453 60.5273 50.25C62.2461 52.5547 63.4375 55.2695 64.1016 58.3945L64.3359 59.3906H81.5625L81.5039 58.8633C80.957 52.8477 79.0625 47.5352 75.8203 42.9258C72.5781 38.2773 68.2812 34.625 62.9297 31.9688C57.5781 29.3125 51.4844 27.9844 44.6484 27.9844C36.4062 27.9844 29.2773 29.7422 23.2617 33.2578C17.2461 36.7344 12.5977 41.7344 9.31641 48.2578C6.03516 54.7422 4.39453 62.5352 4.39453 71.6367V71.6953C4.39453 80.7578 6.01562 88.5703 9.25781 95.1328C12.5391 101.656 17.1875 106.676 23.2031 110.191C29.2578 113.707 36.4062 115.465 44.6484 115.465ZM128.027 115.465C135.293 115.465 141.562 114.156 146.836 111.539C152.148 108.922 156.23 105.27 159.082 100.582C161.973 95.8555 163.418 90.3672 163.418 84.1172V29.4492H145.723V82.5352C145.723 86.168 145.039 89.332 143.672 92.0273C142.305 94.6836 140.293 96.7539 137.637 98.2383C135.02 99.7227 131.816 100.465 128.027 100.465C124.238 100.465 121.016 99.7227 118.359 98.2383C115.742 96.7539 113.73 94.6836 112.324 92.0273C110.957 89.332 110.273 86.168 110.273 82.5352V29.4492H92.5781V84.1172C92.5781 90.3672 94.0234 95.8555 96.9141 100.582C99.8438 105.27 103.945 108.922 109.219 111.539C114.531 114.156 120.801 115.465 128.027 115.465Z" fill="#F7DB39"/>
<path d="M17.1094 154.513C18.3626 154.513 19.502 154.317 20.5273 153.927C21.569 153.52 22.4805 152.958 23.2617 152.242C24.0592 151.51 24.694 150.631 25.166 149.605H25.3125V154H31.3672V118.771H25.3125V132.564H25.166C24.6777 131.523 24.0348 130.636 23.2373 129.903C22.4398 129.155 21.5202 128.585 20.4785 128.194C19.4531 127.787 18.3219 127.584 17.085 127.584C14.9202 127.584 13.0404 128.129 11.4453 129.22C9.85026 130.294 8.61328 131.84 7.73438 133.858C6.85547 135.86 6.41602 138.253 6.41602 141.036V141.061C6.41602 143.827 6.84733 146.22 7.70996 148.238C8.58887 150.257 9.82585 151.811 11.4209 152.901C13.0322 153.976 14.9284 154.513 17.1094 154.513ZM18.9404 149.41C17.6383 149.41 16.5072 149.076 15.5469 148.409C14.6029 147.726 13.8704 146.757 13.3496 145.504C12.8451 144.251 12.5928 142.77 12.5928 141.061V141.036C12.5928 139.311 12.8451 137.83 13.3496 136.593C13.8704 135.356 14.6029 134.404 15.5469 133.736C16.5072 133.053 17.6383 132.711 18.9404 132.711C20.1937 132.711 21.2923 133.053 22.2363 133.736C23.1966 134.42 23.9453 135.388 24.4824 136.642C25.0358 137.879 25.3125 139.343 25.3125 141.036V141.061C25.3125 142.753 25.0439 144.226 24.5068 145.479C23.9697 146.733 23.221 147.701 22.2607 148.385C21.3005 149.068 20.1937 149.41 18.9404 149.41Z" fill="#FFBA55"/>
<path d="M50.3711 154.513C52.0475 154.513 53.5449 154.293 54.8633 153.854C56.1816 153.398 57.321 152.787 58.2812 152.022C59.2415 151.257 60.0065 150.403 60.5762 149.459C61.1458 148.499 61.5365 147.522 61.748 146.529L61.7969 146.261H56.1328L56.084 146.432C55.8887 147.018 55.5387 147.563 55.0342 148.067C54.5459 148.572 53.9193 148.987 53.1543 149.312C52.3893 149.622 51.5023 149.776 50.4932 149.776C49.1423 149.776 47.9785 149.483 47.002 148.897C46.0254 148.295 45.2686 147.441 44.7314 146.334C44.2106 145.211 43.9502 143.86 43.9502 142.281V139.938C43.9502 138.31 44.2106 136.926 44.7314 135.787C45.2686 134.648 46.001 133.793 46.9287 133.224C47.8727 132.638 48.9469 132.345 50.1514 132.345C51.3395 132.345 52.3893 132.63 53.3008 133.199C54.2122 133.753 54.9284 134.591 55.4492 135.714C55.9701 136.837 56.2305 138.245 56.2305 139.938V142.281L59.1602 138.497H40.9229V142.55H62.0654V140.597C62.0654 137.993 61.5771 135.714 60.6006 133.761C59.6403 131.808 58.2568 130.294 56.4502 129.22C54.6598 128.129 52.5358 127.584 50.0781 127.584C47.6042 127.584 45.4557 128.146 43.6328 129.269C41.8262 130.392 40.4183 131.97 39.4092 134.005C38.4163 136.023 37.9199 138.391 37.9199 141.109V141.134C37.9199 143.868 38.4163 146.236 39.4092 148.238C40.402 150.24 41.8262 151.786 43.6816 152.877C45.5534 153.967 47.7832 154.513 50.3711 154.513Z" fill="#79CFFF"/>
<path d="M78.5547 154.513C80.6706 154.513 82.5423 154.179 84.1699 153.512C85.8138 152.828 87.0996 151.876 88.0273 150.655C88.9551 149.418 89.4189 147.986 89.4189 146.358V146.334C89.4189 144.462 88.8493 142.973 87.71 141.866C86.5706 140.743 84.6582 139.881 81.9727 139.278L77.6758 138.326C76.7806 138.115 76.0645 137.87 75.5273 137.594C74.9902 137.301 74.5996 136.959 74.3555 136.568C74.1113 136.178 73.9893 135.738 73.9893 135.25V135.226C73.9893 134.591 74.1602 134.037 74.502 133.565C74.86 133.093 75.3646 132.727 76.0156 132.467C76.6829 132.206 77.4642 132.076 78.3594 132.076C79.7754 132.076 80.8903 132.418 81.7041 133.102C82.5179 133.769 82.9899 134.623 83.1201 135.665L83.1445 135.86H88.8086L88.7842 135.592C88.7191 134.094 88.2633 132.743 87.417 131.539C86.5869 130.335 85.4069 129.374 83.877 128.658C82.347 127.942 80.5078 127.584 78.3594 127.584C76.2923 127.584 74.4775 127.918 72.915 128.585C71.3525 129.252 70.14 130.18 69.2773 131.368C68.4147 132.556 67.9834 133.94 67.9834 135.519V135.543C67.9834 136.829 68.2601 137.96 68.8135 138.937C69.3669 139.897 70.1969 140.702 71.3037 141.354C72.4105 142.005 73.7858 142.517 75.4297 142.892L79.7266 143.844C81.0775 144.153 82.0133 144.552 82.5342 145.04C83.055 145.512 83.3154 146.131 83.3154 146.896V146.92C83.3154 147.555 83.1201 148.108 82.7295 148.58C82.3551 149.052 81.818 149.41 81.1182 149.654C80.4183 149.898 79.5719 150.021 78.5791 150.021C77.0329 150.021 75.8285 149.711 74.9658 149.093C74.1195 148.474 73.5824 147.604 73.3545 146.48L73.3057 146.261H67.3242L67.3486 146.48C67.5439 148.076 68.0892 149.483 68.9844 150.704C69.8958 151.909 71.1491 152.844 72.7441 153.512C74.3555 154.179 76.2923 154.513 78.5547 154.513Z" fill="#FDABED"/>
<path d="M95.9717 154H102.051V128.121H95.9717V154ZM98.999 124.41C99.9593 124.41 100.765 124.085 101.416 123.434C102.067 122.783 102.393 122.001 102.393 121.09C102.393 120.162 102.067 119.381 101.416 118.746C100.765 118.095 99.9593 117.77 98.999 117.77C98.055 117.77 97.2575 118.095 96.6064 118.746C95.9554 119.381 95.6299 120.162 95.6299 121.09C95.6299 122.001 95.9554 122.783 96.6064 123.434C97.2575 124.085 98.055 124.41 98.999 124.41Z" fill="#B4DF69"/>
<path d="M121.396 163.058C123.903 163.058 126.068 162.651 127.891 161.837C129.714 161.023 131.121 159.876 132.114 158.395C133.107 156.93 133.604 155.221 133.604 153.268V128.121H127.524V132.516H127.378C126.89 131.523 126.255 130.66 125.474 129.928C124.709 129.195 123.813 128.626 122.788 128.219C121.763 127.796 120.64 127.584 119.419 127.584C117.238 127.584 115.342 128.121 113.73 129.195C112.119 130.27 110.866 131.791 109.971 133.761C109.092 135.714 108.652 138.058 108.652 140.792V140.816C108.652 143.502 109.084 145.821 109.946 147.774C110.825 149.711 112.062 151.209 113.657 152.267C115.269 153.325 117.157 153.854 119.321 153.854C120.558 153.854 121.698 153.666 122.739 153.292C123.797 152.918 124.717 152.397 125.498 151.729C126.296 151.062 126.93 150.265 127.402 149.337H127.524V153.072C127.524 154.716 126.995 156.026 125.938 157.003C124.88 157.979 123.358 158.468 121.372 158.468C119.81 158.468 118.516 158.215 117.49 157.711C116.481 157.223 115.814 156.604 115.488 155.855L115.391 155.66H109.434L109.482 155.88C109.727 157.231 110.353 158.451 111.362 159.542C112.371 160.632 113.722 161.487 115.415 162.105C117.124 162.74 119.118 163.058 121.396 163.058ZM121.226 149.166C119.924 149.166 118.792 148.832 117.832 148.165C116.872 147.498 116.131 146.554 115.61 145.333C115.09 144.096 114.829 142.631 114.829 140.938V140.914C114.829 139.221 115.09 137.765 115.61 136.544C116.131 135.323 116.872 134.379 117.832 133.712C118.792 133.045 119.924 132.711 121.226 132.711C122.479 132.711 123.577 133.045 124.521 133.712C125.465 134.379 126.206 135.331 126.743 136.568C127.28 137.789 127.549 139.238 127.549 140.914V140.938C127.549 142.599 127.28 144.047 126.743 145.284C126.222 146.521 125.49 147.481 124.546 148.165C123.602 148.832 122.495 149.166 121.226 149.166Z" fill="#B8B6FA"/>
<path d="M141.084 154H147.139V138.985C147.139 137.732 147.375 136.642 147.847 135.714C148.319 134.77 148.986 134.037 149.849 133.517C150.711 132.979 151.72 132.711 152.876 132.711C154.601 132.711 155.895 133.215 156.758 134.225C157.62 135.217 158.052 136.633 158.052 138.473V154H164.131V137.252C164.131 134.257 163.35 131.897 161.787 130.172C160.241 128.447 158.044 127.584 155.195 127.584C153.242 127.584 151.598 127.999 150.264 128.829C148.945 129.659 147.952 130.774 147.285 132.174H147.139V128.121H141.084V154Z" fill="#A5A5A5"/>
</svg>
