<svg width="14" height="12" viewBox="0 0 14 12" fill="none" xmlns="http://www.w3.org/2000/svg">
<path d="M13.1371 0H8.32351C7.8477 0 7.46064 0.314526 7.46064 0.701083C7.46064 1.08764 7.8477 1.40217 8.32351 1.40217H11.054L6.49926 5.10284C6.3362 5.23525 6.24646 5.41128 6.24646 5.59861C6.24646 5.78594 6.33615 5.96193 6.49916 6.09421C6.66217 6.22678 6.87877 6.29973 7.10933 6.29973C7.33979 6.29973 7.5565 6.22682 7.71955 6.09433L12.2742 2.39362V4.61212C12.2742 4.99868 12.6613 5.31321 13.1371 5.31321C13.6129 5.31321 14 4.99868 14 4.61212V0.701083C14 0.314526 13.6129 0 13.1371 0Z" fill="#6B6B6B"/>
<path d="M9.91745 10.1724H1.47921V3.31633H7.82555L9.30476 2.11447H0.739604C0.331145 2.11447 0 2.38353 0 2.7154V10.7733C0 11.1052 0.331145 11.3742 0.739604 11.3742H10.6571C11.0655 11.3742 11.3967 11.1052 11.3967 10.7733V3.81414L9.91745 5.01599V10.1724Z" fill="#6B6B6B"/>
</svg>
