<svg width="19" height="16" viewBox="0 0 19 16" fill="none" xmlns="http://www.w3.org/2000/svg">
<path d="M17.8296 0.0625H11.2965C10.6508 0.0625 10.1254 0.489379 10.1254 1.01402C10.1254 1.53866 10.6508 1.96554 11.2965 1.96554H15.0024L8.82064 6.98816C8.59933 7.16786 8.47754 7.40677 8.47754 7.66102C8.47754 7.91526 8.59927 8.15412 8.8205 8.33366C9.04174 8.51358 9.33572 8.61259 9.64864 8.61259C9.96143 8.61259 10.2555 8.51364 10.4768 8.33383L16.6585 3.31116V6.32215C16.6585 6.84679 17.1839 7.27367 17.8296 7.27367C18.4753 7.27367 19.0007 6.84679 19.0007 6.32215V1.01402C19.0007 0.489379 18.4753 0.0625 17.8296 0.0625Z" fill="#6B6B6B"/>
<path d="M13.4601 13.8687H2.0076V4.56355H10.621L12.6286 2.93237H1.0038C0.449436 2.93237 0 3.29754 0 3.74796V14.6843C0 15.1347 0.449436 15.4999 1.0038 15.4999H14.4639C15.0183 15.4999 15.4677 15.1347 15.4677 14.6843V5.23918L13.4601 6.87036V13.8687Z" fill="#6B6B6B"/>
</svg>
