<svg width="31" height="30" viewBox="0 0 31 30" fill="none" xmlns="http://www.w3.org/2000/svg">
<path d="M27.125 1.9375C27.6389 1.9375 28.1317 2.14163 28.495 2.50498C28.8584 2.86833 29.0625 3.36114 29.0625 3.875V19.375C29.0625 19.8889 28.8584 20.3817 28.495 20.745C28.1317 21.1084 27.6389 21.3125 27.125 21.3125H8.55212C7.5245 21.3127 6.53903 21.7211 5.8125 22.4479L1.9375 26.3229V3.875C1.9375 3.36114 2.14163 2.86833 2.50498 2.50498C2.86833 2.14163 3.36114 1.9375 3.875 1.9375H27.125ZM3.875 0C2.84729 0 1.86166 0.408258 1.13496 1.13496C0.408258 1.86166 0 2.84729 0 3.875L0 28.6614C4.07163e-05 28.8531 0.0569481 29.0405 0.16352 29.1998C0.270091 29.3592 0.421536 29.4833 0.598686 29.5565C0.775836 29.6297 0.970728 29.6488 1.15869 29.6112C1.34666 29.5736 1.51925 29.4811 1.65462 29.3454L7.18231 23.8177C7.54558 23.4543 8.03831 23.2501 8.55212 23.25H27.125C28.1527 23.25 29.1383 22.8417 29.865 22.115C30.5917 21.3883 31 20.4027 31 19.375V3.875C31 2.84729 30.5917 1.86166 29.865 1.13496C29.1383 0.408258 28.1527 0 27.125 0L3.875 0Z" fill="#E3BFF0"/>
<path d="M13.6904 9.22335C13.313 8.63561 12.755 8.18623 12.1003 7.94278C11.4457 7.69932 10.7296 7.67493 10.0599 7.87327C9.39016 8.07161 8.8029 8.48197 8.38636 9.04267C7.96983 9.60337 7.74654 10.2841 7.75004 10.9826C7.75039 11.561 7.90606 12.1287 8.20078 12.6264C8.49551 13.1241 8.91848 13.5335 9.42551 13.8119C9.93254 14.0902 10.505 14.2273 11.0831 14.2088C11.6612 14.1903 12.2238 14.0169 12.712 13.7067C12.4582 14.4604 11.9854 15.2645 11.2065 16.0705C11.0575 16.2246 10.9758 16.4317 10.9795 16.6461C10.9831 16.8604 11.0718 17.0646 11.2259 17.2136C11.3801 17.3626 11.5871 17.4443 11.8015 17.4407C12.0159 17.437 12.22 17.3484 12.369 17.1942C15.2482 14.2105 14.8742 10.9671 13.6904 9.22722V9.22335ZM21.4404 9.22335C21.063 8.63561 20.505 8.18623 19.8503 7.94278C19.1957 7.69932 18.4796 7.67493 17.8099 7.87327C17.1402 8.07161 16.5529 8.48197 16.1364 9.04267C15.7198 9.60337 15.4965 10.2841 15.5 10.9826C15.5004 11.561 15.6561 12.1287 15.9508 12.6264C16.2455 13.1241 16.6685 13.5335 17.1755 13.8119C17.6825 14.0902 18.255 14.2273 18.8331 14.2088C19.4112 14.1903 19.9738 14.0169 20.462 13.7067C20.2082 14.4604 19.7354 15.2645 18.9565 16.0705C18.8075 16.2246 18.7258 16.4317 18.7295 16.6461C18.7331 16.8604 18.8218 17.0646 18.9759 17.2136C19.1301 17.3626 19.3371 17.4443 19.5515 17.4407C19.7659 17.437 19.97 17.3484 20.119 17.1942C22.9982 14.2105 22.6242 10.9671 21.4404 9.22722V9.22335Z" fill="#E3BFF0"/>
</svg>
