<svg width="26" height="33" viewBox="0 0 26 33" fill="none" xmlns="http://www.w3.org/2000/svg">
<path d="M17.875 3.3H3.25V29.7H22.75V8.25H17.875V3.3ZM3.25 0H19.5L26 6.6V29.7C26 30.5752 25.6576 31.4146 25.0481 32.0335C24.4386 32.6523 23.612 33 22.75 33H3.25C2.38805 33 1.5614 32.6523 0.951903 32.0335C0.34241 31.4146 0 30.5752 0 29.7V3.3C0 2.42479 0.34241 1.58542 0.951903 0.966547C1.5614 0.347677 2.38805 0 3.25 0ZM6.5 14.85H19.5V18.15H6.5V14.85ZM6.5 21.45H19.5V24.75H6.5V21.45Z" fill="#B1D5EF"/>
</svg>
