<svg width="25" height="25" viewBox="0 0 25 25" fill="none" xmlns="http://www.w3.org/2000/svg">
<path d="M15.0827 5.15625H2.91734C1.3128 5.15625 0 6.3871 0 7.89148V17.1092C0 18.6136 1.3128 19.8444 2.91734 19.8444H15.0827C16.6872 19.8444 18 18.6136 18 17.1092V7.89148C18 6.35975 16.6872 5.15625 15.0827 5.15625Z" fill="black"/>
<path d="M22.9756 6.66124C22.8115 6.6886 22.6474 6.77065 22.5106 6.85271L18.2437 9.31442V15.6602L22.538 18.1219C23.3312 18.5869 24.3159 18.3133 24.7809 17.5201C24.9176 17.2739 24.9997 17.0004 24.9997 16.6995V8.24768C24.9997 7.23564 24.0423 6.41507 22.9756 6.66124Z" fill="black"/>
</svg>
